<svg xmlns="http://www.w3.org/2000/svg" viewBox="0 0 1024 1024"><defs>
  <linearGradient id="bg" x1="0" y1="0" x2="0" y2="1">
    <stop offset="0" stop-color="#fff8ee"/><stop offset="1" stop-color="#fde3c6"/>
  </linearGradient>
  <mask id="silhouette" maskUnits="userSpaceOnUse" x="0" y="0" width="1024" height="1024">
    <path d="M312 246C330 300 336 322 356 336C400 318 452 310 512 310C572 310 624 318 668 336C688 322 694 300 712 246C760 300 786 390 786 500C786 680 670 830 512 830C354 830 238 680 238 500C238 390 264 300 312 246Z" fill="#fff"/>
    <circle cx="412" cy="476" r="72" fill="#000"/><circle cx="412" cy="482" r="34" fill="#fff"/><circle cx="612" cy="476" r="72" fill="#000"/><circle cx="612" cy="482" r="34" fill="#fff"/>
    <path d="M478 560Q512 540 546 560L526 626Q512 648 498 626Z" fill="#000"/>
    <g fill="#fff" stroke="#000" stroke-width="14" stroke-linejoin="round">
      <path d="M307 660a13 13 0 0 1 26 0V852a13 13 0 0 1 -26 0ZM691 660a13 13 0 0 1 26 0V852a13 13 0 0 1 -26 0Z"/><path d="M340 692C400 680 452 704 512 692C572 680 624 704 684 692V816C624 828 572 804 512 816C452 828 400 804 340 816Z"/><path d="M290 682V826A30 11 0 0 0 350 826V682A30 11 0 0 0 290 682ZM674 682V826A30 11 0 0 0 734 826V682A30 11 0 0 0 674 682Z"/><path d="M290 682A30 11 0 1 0 350 682A30 11 0 1 0 290 682ZM674 682A30 11 0 1 0 734 682A30 11 0 1 0 674 682Z"/>
    </g>
    <path d="M306 682A14 5 0 1 0 328 679M690 682A14 5 0 1 0 712 679M388 732q4 -7 8 0t8 0t8 0t8 0t8 0t8 0M470 732q4 -7 8 0t8 0t8 0t8 0t8 0t8 0t8 0t8 0M574 732q4 -7 8 0t8 0t8 0t8 0t8 0t8 0t8 0t8 0M388 758q4 -7 8 0t8 0t8 0t8 0t8 0t8 0t8 0t8 0t8 0t8 0M494 758q4 -7 8 0t8 0t8 0t8 0t8 0t8 0t8 0t8 0M592 758q4 -7 8 0t8 0t8 0t8 0t8 0t8 0M388 784q4 -7 8 0t8 0t8 0t8 0t8 0t8 0t8 0t8 0M484 784q4 -7 8 0t8 0t8 0t8 0t8 0t8 0t8 0t8 0" fill="none" stroke="#000" stroke-width="8" stroke-linecap="round"/>
  </mask>
  <filter id="shadow" x="-10%" y="-10%" width="120%" height="125%">
    <feDropShadow dx="0" dy="12" stdDeviation="14" flood-color="#6b3a17" flood-opacity="0.28"/>
  </filter></defs><path d="M1024.0 512.0L1023.9 628.2L1023.8 665.3L1023.4 692.3L1023.0 714.2L1022.5 733.0L1021.8 749.6L1021.0 764.6L1020.0 778.3L1019.0 791.0L1017.8 802.7L1016.5 813.8L1015.1 824.2L1013.5 834.0L1011.8 843.3L1010.0 852.2L1008.0 860.7L1006.0 868.7L1003.7 876.5L1001.4 883.9L998.9 891.0L996.3 897.8L993.5 904.4L990.6 910.7L987.6 916.7L984.4 922.6L981.0 928.2L977.5 933.6L973.9 938.8L970.1 943.8L966.1 948.6L962.0 953.3L957.7 957.7L953.3 962.0L948.6 966.1L943.8 970.1L938.8 973.9L933.6 977.5L928.2 981.0L922.6 984.4L916.7 987.6L910.7 990.6L904.4 993.5L897.8 996.3L891.0 998.9L883.9 1001.4L876.5 1003.7L868.7 1006.0L860.7 1008.0L852.2 1010.0L843.3 1011.8L834.0 1013.5L824.2 1015.1L813.8 1016.5L802.7 1017.8L791.0 1019.0L778.3 1020.0L764.6 1021.0L749.6 1021.8L733.0 1022.5L714.2 1023.0L692.3 1023.4L665.3 1023.8L628.2 1023.9L512.0 1024.0L395.8 1023.9L358.7 1023.8L331.7 1023.4L309.8 1023.0L291.0 1022.5L274.4 1021.8L259.4 1021.0L245.7 1020.0L233.0 1019.0L221.3 1017.8L210.2 1016.5L199.8 1015.1L190.0 1013.5L180.7 1011.8L171.8 1010.0L163.3 1008.0L155.3 1006.0L147.5 1003.7L140.1 1001.4L133.0 998.9L126.2 996.3L119.6 993.5L113.3 990.6L107.3 987.6L101.4 984.4L95.8 981.0L90.4 977.5L85.2 973.9L80.2 970.1L75.4 966.1L70.7 962.0L66.3 957.7L62.0 953.3L57.9 948.6L53.9 943.8L50.1 938.8L46.5 933.6L43.0 928.2L39.6 922.6L36.4 916.7L33.4 910.7L30.5 904.4L27.7 897.8L25.1 891.0L22.6 883.9L20.3 876.5L18.0 868.7L16.0 860.7L14.0 852.2L12.2 843.3L10.5 834.0L8.9 824.2L7.5 813.8L6.2 802.7L5.0 791.0L4.0 778.3L3.0 764.6L2.2 749.6L1.5 733.0L1.0 714.2L0.6 692.3L0.2 665.3L0.1 628.2L0.0 512.0L0.1 395.8L0.2 358.7L0.6 331.7L1.0 309.8L1.5 291.0L2.2 274.4L3.0 259.4L4.0 245.7L5.0 233.0L6.2 221.3L7.5 210.2L8.9 199.8L10.5 190.0L12.2 180.7L14.0 171.8L16.0 163.3L18.0 155.3L20.3 147.5L22.6 140.1L25.1 133.0L27.7 126.2L30.5 119.6L33.4 113.3L36.4 107.3L39.6 101.4L43.0 95.8L46.5 90.4L50.1 85.2L53.9 80.2L57.9 75.4L62.0 70.7L66.3 66.3L70.7 62.0L75.4 57.9L80.2 53.9L85.2 50.1L90.4 46.5L95.8 43.0L101.4 39.6L107.3 36.4L113.3 33.4L119.6 30.5L126.2 27.7L133.0 25.1L140.1 22.6L147.5 20.3L155.3 18.0L163.3 16.0L171.8 14.0L180.7 12.2L190.0 10.5L199.8 8.9L210.2 7.5L221.3 6.2L233.0 5.0L245.7 4.0L259.4 3.0L274.4 2.2L291.0 1.5L309.8 1.0L331.7 0.6L358.7 0.2L395.8 0.1L512.0 0.0L628.2 0.1L665.3 0.2L692.3 0.6L714.2 1.0L733.0 1.5L749.6 2.2L764.6 3.0L778.3 4.0L791.0 5.0L802.7 6.2L813.8 7.5L824.2 8.9L834.0 10.5L843.3 12.2L852.2 14.0L860.7 16.0L868.7 18.0L876.5 20.3L883.9 22.6L891.0 25.1L897.8 27.7L904.4 30.5L910.7 33.4L916.7 36.4L922.6 39.6L928.2 43.0L933.6 46.5L938.8 50.1L943.8 53.9L948.6 57.9L953.3 62.0L957.7 66.3L962.0 70.7L966.1 75.4L970.1 80.2L973.9 85.2L977.5 90.4L981.0 95.8L984.4 101.4L987.6 107.3L990.6 113.3L993.5 119.6L996.3 126.2L998.9 133.0L1001.4 140.1L1003.7 147.5L1006.0 155.3L1008.0 163.3L1010.0 171.8L1011.8 180.7L1013.5 190.0L1015.1 199.8L1016.5 210.2L1017.8 221.3L1019.0 233.0L1020.0 245.7L1021.0 259.4L1021.8 274.4L1022.5 291.0L1023.0 309.8L1023.4 331.7L1023.8 358.7L1023.9 395.8Z" fill="url(#bg)"/><g transform="translate(512 520) scale(1.16) translate(-512 -554)">
  <g stroke="#3d2416" stroke-width="14" stroke-linejoin="round" stroke-linecap="round">
    <path fill="#d9722f" d="M312 246C330 300 336 322 356 336C400 318 452 310 512 310C572 310 624 318 668 336C688 322 694 300 712 246C760 300 786 390 786 500C786 680 670 830 512 830C354 830 238 680 238 500C238 390 264 300 312 246Z"/>
    <path fill="#fde2bd" d="M512 384C476 352 432 342 392 350C330 362 290 414 290 476C290 548 344 598 412 598C452 598 488 582 512 558C536 582 572 598 612 598C680 598 734 548 734 476C734 414 694 362 632 350C592 342 548 352 512 384Z"/>
    
    <circle cx="412" cy="476" r="72" fill="#f59e2a" stroke-width="10"/>
    <circle cx="412" cy="482" r="44" fill="#3d2416" stroke="none"/>
    <circle cx="428" cy="464" r="16" fill="#ffffff" stroke="none"/>
    <circle cx="612" cy="476" r="72" fill="#f59e2a" stroke-width="10"/>
    <circle cx="612" cy="482" r="44" fill="#3d2416" stroke="none"/>
    <circle cx="628" cy="464" r="16" fill="#ffffff" stroke="none"/>
    <path fill="#e2472b" stroke-width="10" d="M478 560Q512 540 546 560L526 626Q512 648 498 626Z"/>
    <path fill="#8e4322" d="M307 660a13 13 0 0 1 26 0V852a13 13 0 0 1 -26 0ZM691 660a13 13 0 0 1 26 0V852a13 13 0 0 1 -26 0Z"/>
    <path fill="#f3dca8" d="M340 692C400 680 452 704 512 692C572 680 624 704 684 692V816C624 828 572 804 512 816C452 828 400 804 340 816Z"/>
    <path fill="none" stroke="#9a5a32" stroke-width="7" d="M388 732q4 -7 8 0t8 0t8 0t8 0t8 0t8 0M470 732q4 -7 8 0t8 0t8 0t8 0t8 0t8 0t8 0t8 0M574 732q4 -7 8 0t8 0t8 0t8 0t8 0t8 0t8 0t8 0M388 758q4 -7 8 0t8 0t8 0t8 0t8 0t8 0t8 0t8 0t8 0t8 0M494 758q4 -7 8 0t8 0t8 0t8 0t8 0t8 0t8 0t8 0M592 758q4 -7 8 0t8 0t8 0t8 0t8 0t8 0M388 784q4 -7 8 0t8 0t8 0t8 0t8 0t8 0t8 0t8 0M484 784q4 -7 8 0t8 0t8 0t8 0t8 0t8 0t8 0t8 0"/>
    <path fill="#e2c07e" d="M290 682V826A30 11 0 0 0 350 826V682A30 11 0 0 0 290 682ZM674 682V826A30 11 0 0 0 734 826V682A30 11 0 0 0 674 682Z"/>
    <path fill="#f3dca8" d="M290 682A30 11 0 1 0 350 682A30 11 0 1 0 290 682ZM674 682A30 11 0 1 0 734 682A30 11 0 1 0 674 682Z"/>
    <path fill="none" stroke="#b07f45" stroke-width="7" d="M306 682A14 5 0 1 0 328 679M690 682A14 5 0 1 0 712 679"/>
  </g></g></svg>
